<mxfile host="app.diagrams.net" modified="2023-08-21T19:45:35.424Z" agent="Mozilla/5.0 (Windows NT 10.0; Win64; x64) AppleWebKit/537.36 (KHTML, like Gecko) Chrome/116.0.0.0 Safari/537.36" etag="9Xu-5xkrMYEHcXgQWfpO" version="21.6.8" type="google">
  <diagram name="Page-1" id="1hfMfTK2yjsWsucCjEhh">
    <mxGraphModel grid="1" page="1" gridSize="10" guides="1" tooltips="1" connect="1" arrows="1" fold="1" pageScale="1" pageWidth="827" pageHeight="1169" math="0" shadow="0">
      <root>
        <mxCell id="0" />
        <mxCell id="1" parent="0" />
        <mxCell id="CAX5XdgEWYL_8YnyTvap-11" value="" style="rounded=0;whiteSpace=wrap;html=1;" vertex="1" parent="1">
          <mxGeometry x="40" y="40" width="300" height="170" as="geometry" />
        </mxCell>
        <mxCell id="CAX5XdgEWYL_8YnyTvap-12" value="" style="rounded=0;whiteSpace=wrap;html=1;" vertex="1" parent="1">
          <mxGeometry x="10" y="60" width="80" height="40" as="geometry" />
        </mxCell>
        <mxCell id="CAX5XdgEWYL_8YnyTvap-13" value="" style="rounded=0;whiteSpace=wrap;html=1;" vertex="1" parent="1">
          <mxGeometry x="10" y="150" width="80" height="40" as="geometry" />
        </mxCell>
        <mxCell id="CAX5XdgEWYL_8YnyTvap-14" value="&amp;lt;&amp;lt;component&amp;gt;&amp;gt;&lt;br&gt;Korisnik" style="rounded=0;whiteSpace=wrap;html=1;" vertex="1" parent="1">
          <mxGeometry x="135" y="105" width="110" height="45" as="geometry" />
        </mxCell>
        <mxCell id="CAX5XdgEWYL_8YnyTvap-15" value="Korisnici" style="text;html=1;align=center;verticalAlign=middle;resizable=0;points=[];autosize=1;strokeColor=none;fillColor=none;" vertex="1" parent="1">
          <mxGeometry x="155" y="40" width="70" height="30" as="geometry" />
        </mxCell>
        <mxCell id="CAX5XdgEWYL_8YnyTvap-16" value="" style="rounded=0;whiteSpace=wrap;html=1;" vertex="1" parent="1">
          <mxGeometry x="40" y="390" width="300" height="170" as="geometry" />
        </mxCell>
        <mxCell id="CAX5XdgEWYL_8YnyTvap-21" value="" style="endArrow=none;html=1;rounded=0;entryX=0.5;entryY=1;entryDx=0;entryDy=0;exitX=1;exitY=0.5;exitDx=0;exitDy=0;exitPerimeter=0;" edge="1" parent="1" target="CAX5XdgEWYL_8YnyTvap-11">
          <mxGeometry width="50" height="50" relative="1" as="geometry">
            <mxPoint x="190" y="285" as="sourcePoint" />
            <mxPoint x="310" y="280" as="targetPoint" />
          </mxGeometry>
        </mxCell>
        <mxCell id="CAX5XdgEWYL_8YnyTvap-22" value="" style="endArrow=none;html=1;rounded=0;entryX=0;entryY=0.5;entryDx=0;entryDy=0;entryPerimeter=0;exitX=0.583;exitY=0.067;exitDx=0;exitDy=0;exitPerimeter=0;" edge="1" parent="1" source="CAX5XdgEWYL_8YnyTvap-42" target="CAX5XdgEWYL_8YnyTvap-68">
          <mxGeometry width="50" height="50" relative="1" as="geometry">
            <mxPoint x="190" y="380" as="sourcePoint" />
            <mxPoint x="190" y="320" as="targetPoint" />
          </mxGeometry>
        </mxCell>
        <mxCell id="CAX5XdgEWYL_8YnyTvap-24" value="Podaci za prijavu" style="text;html=1;align=center;verticalAlign=middle;resizable=0;points=[];autosize=1;strokeColor=none;fillColor=none;" vertex="1" parent="1">
          <mxGeometry x="207.5" y="290" width="110" height="30" as="geometry" />
        </mxCell>
        <mxCell id="CAX5XdgEWYL_8YnyTvap-25" value="" style="rounded=0;whiteSpace=wrap;html=1;" vertex="1" parent="1">
          <mxGeometry x="10" y="420" width="90" height="40" as="geometry" />
        </mxCell>
        <mxCell id="CAX5XdgEWYL_8YnyTvap-26" value="" style="rounded=0;whiteSpace=wrap;html=1;" vertex="1" parent="1">
          <mxGeometry x="10" y="500" width="90" height="40" as="geometry" />
        </mxCell>
        <mxCell id="CAX5XdgEWYL_8YnyTvap-27" value="&amp;lt;&amp;lt;component&amp;gt;&amp;gt;&lt;br&gt;Pijava" style="rounded=0;whiteSpace=wrap;html=1;" vertex="1" parent="1">
          <mxGeometry x="135" y="445" width="115" height="45" as="geometry" />
        </mxCell>
        <mxCell id="CAX5XdgEWYL_8YnyTvap-28" value="" style="endArrow=none;html=1;rounded=0;exitX=1;exitY=0.5;exitDx=0;exitDy=0;" edge="1" parent="1" source="CAX5XdgEWYL_8YnyTvap-11">
          <mxGeometry width="50" height="50" relative="1" as="geometry">
            <mxPoint x="260" y="330" as="sourcePoint" />
            <mxPoint x="550" y="125" as="targetPoint" />
          </mxGeometry>
        </mxCell>
        <mxCell id="CAX5XdgEWYL_8YnyTvap-37" value="" style="rounded=0;whiteSpace=wrap;html=1;" vertex="1" parent="1">
          <mxGeometry x="770" y="40" width="340" height="170" as="geometry" />
        </mxCell>
        <mxCell id="CAX5XdgEWYL_8YnyTvap-38" value="" style="endArrow=none;html=1;rounded=0;exitX=1;exitY=0.5;exitDx=0;exitDy=0;entryX=0;entryY=0.5;entryDx=0;entryDy=0;" edge="1" parent="1" target="CAX5XdgEWYL_8YnyTvap-37">
          <mxGeometry width="50" height="50" relative="1" as="geometry">
            <mxPoint x="590" y="125" as="sourcePoint" />
            <mxPoint x="670" y="280" as="targetPoint" />
          </mxGeometry>
        </mxCell>
        <mxCell id="CAX5XdgEWYL_8YnyTvap-39" value="" style="rounded=0;whiteSpace=wrap;html=1;" vertex="1" parent="1">
          <mxGeometry x="720" y="60" width="100" height="50" as="geometry" />
        </mxCell>
        <mxCell id="CAX5XdgEWYL_8YnyTvap-40" value="" style="rounded=0;whiteSpace=wrap;html=1;" vertex="1" parent="1">
          <mxGeometry x="720" y="145" width="100" height="45" as="geometry" />
        </mxCell>
        <mxCell id="CAX5XdgEWYL_8YnyTvap-41" value="&amp;lt;&amp;lt;component&amp;gt;&amp;gt;&lt;br&gt;Registracija" style="rounded=0;whiteSpace=wrap;html=1;" vertex="1" parent="1">
          <mxGeometry x="890" y="95" width="120" height="60" as="geometry" />
        </mxCell>
        <mxCell id="CAX5XdgEWYL_8YnyTvap-42" value="Prijava" style="text;html=1;align=center;verticalAlign=middle;resizable=0;points=[];autosize=1;strokeColor=none;fillColor=none;" vertex="1" parent="1">
          <mxGeometry x="155" y="390" width="60" height="30" as="geometry" />
        </mxCell>
        <mxCell id="CAX5XdgEWYL_8YnyTvap-43" value="&lt;blockquote style=&quot;margin: 0 0 0 40px; border: none; padding: 0px;&quot;&gt;Registracija&lt;/blockquote&gt;" style="text;html=1;align=center;verticalAlign=middle;resizable=0;points=[];autosize=1;strokeColor=none;fillColor=none;" vertex="1" parent="1">
          <mxGeometry x="860" y="40" width="130" height="30" as="geometry" />
        </mxCell>
        <mxCell id="CAX5XdgEWYL_8YnyTvap-44" value="Podaci za registraciju" style="text;html=1;align=center;verticalAlign=middle;resizable=0;points=[];autosize=1;strokeColor=none;fillColor=none;" vertex="1" parent="1">
          <mxGeometry x="487.5" y="65" width="140" height="30" as="geometry" />
        </mxCell>
        <mxCell id="CAX5XdgEWYL_8YnyTvap-45" value="" style="endArrow=none;html=1;rounded=0;entryX=0.5;entryY=1;entryDx=0;entryDy=0;exitX=0.942;exitY=0.942;exitDx=0;exitDy=0;exitPerimeter=0;" edge="1" parent="1" source="CAX5XdgEWYL_8YnyTvap-47" target="CAX5XdgEWYL_8YnyTvap-37">
          <mxGeometry width="50" height="50" relative="1" as="geometry">
            <mxPoint x="940" y="400" as="sourcePoint" />
            <mxPoint x="670" y="280" as="targetPoint" />
          </mxGeometry>
        </mxCell>
        <mxCell id="CAX5XdgEWYL_8YnyTvap-46" value="" style="shape=providedRequiredInterface;html=1;verticalLabelPosition=bottom;sketch=0;direction=west;fillColor=#1ba1e2;fontColor=#ffffff;strokeColor=#006EAF;" vertex="1" parent="1">
          <mxGeometry x="550" y="105" width="40" height="40" as="geometry" />
        </mxCell>
        <mxCell id="CAX5XdgEWYL_8YnyTvap-47" value="" style="shape=providedRequiredInterface;html=1;verticalLabelPosition=bottom;sketch=0;direction=west;rotation=45;fillColor=#1ba1e2;fontColor=#ffffff;strokeColor=#006EAF;" vertex="1" parent="1">
          <mxGeometry x="920" y="455" width="40" height="40" as="geometry" />
        </mxCell>
        <mxCell id="CAX5XdgEWYL_8YnyTvap-48" value="" style="endArrow=none;html=1;rounded=0;exitX=1.01;exitY=0.541;exitDx=0;exitDy=0;exitPerimeter=0;entryX=0.801;entryY=0.093;entryDx=0;entryDy=0;entryPerimeter=0;" edge="1" parent="1" source="CAX5XdgEWYL_8YnyTvap-16" target="CAX5XdgEWYL_8YnyTvap-47">
          <mxGeometry width="50" height="50" relative="1" as="geometry">
            <mxPoint x="620" y="330" as="sourcePoint" />
            <mxPoint x="870" y="430" as="targetPoint" />
          </mxGeometry>
        </mxCell>
        <mxCell id="CAX5XdgEWYL_8YnyTvap-49" value="Pristup&amp;nbsp;&amp;nbsp;glavnoj stranici" style="text;html=1;align=center;verticalAlign=middle;resizable=0;points=[];autosize=1;strokeColor=none;fillColor=none;" vertex="1" parent="1">
          <mxGeometry x="775" y="415" width="150" height="30" as="geometry" />
        </mxCell>
        <mxCell id="CAX5XdgEWYL_8YnyTvap-50" value="" style="rounded=0;whiteSpace=wrap;html=1;" vertex="1" parent="1">
          <mxGeometry x="1120" y="370" width="500" height="260" as="geometry" />
        </mxCell>
        <mxCell id="CAX5XdgEWYL_8YnyTvap-51" value="" style="endArrow=none;html=1;rounded=0;exitX=-0.03;exitY=0.747;exitDx=0;exitDy=0;exitPerimeter=0;entryX=0.004;entryY=0.431;entryDx=0;entryDy=0;entryPerimeter=0;" edge="1" parent="1" source="CAX5XdgEWYL_8YnyTvap-47" target="CAX5XdgEWYL_8YnyTvap-50">
          <mxGeometry width="50" height="50" relative="1" as="geometry">
            <mxPoint x="1010" y="430" as="sourcePoint" />
            <mxPoint x="1060" y="380" as="targetPoint" />
          </mxGeometry>
        </mxCell>
        <mxCell id="CAX5XdgEWYL_8YnyTvap-52" value="" style="rounded=0;whiteSpace=wrap;html=1;" vertex="1" parent="1">
          <mxGeometry x="1070" y="420" width="100" height="40" as="geometry" />
        </mxCell>
        <mxCell id="CAX5XdgEWYL_8YnyTvap-53" value="" style="rounded=0;whiteSpace=wrap;html=1;" vertex="1" parent="1">
          <mxGeometry x="1070" y="500" width="100" height="40" as="geometry" />
        </mxCell>
        <mxCell id="CAX5XdgEWYL_8YnyTvap-54" value="&amp;lt;&amp;lt;component&amp;gt;&amp;gt;&lt;br&gt;Online Videoteka" style="rounded=0;whiteSpace=wrap;html=1;" vertex="1" parent="1">
          <mxGeometry x="1320" y="460" width="110" height="55" as="geometry" />
        </mxCell>
        <mxCell id="CAX5XdgEWYL_8YnyTvap-55" value="&amp;lt;&amp;lt;component&amp;gt;&amp;gt;&lt;br&gt;Gledanje" style="rounded=0;whiteSpace=wrap;html=1;" vertex="1" parent="1">
          <mxGeometry x="1490" y="380" width="100" height="50" as="geometry" />
        </mxCell>
        <mxCell id="CAX5XdgEWYL_8YnyTvap-56" value="&amp;lt;&amp;lt;component&amp;gt;&amp;gt;&lt;br&gt;Ocjenivanje" style="rounded=0;whiteSpace=wrap;html=1;" vertex="1" parent="1">
          <mxGeometry x="1490" y="470" width="100" height="47.5" as="geometry" />
        </mxCell>
        <mxCell id="CAX5XdgEWYL_8YnyTvap-57" value="&amp;lt;&amp;lt;component&amp;gt;&amp;gt;&lt;br&gt;Komentiranje" style="rounded=0;whiteSpace=wrap;html=1;" vertex="1" parent="1">
          <mxGeometry x="1500" y="570" width="100" height="50" as="geometry" />
        </mxCell>
        <mxCell id="CAX5XdgEWYL_8YnyTvap-58" value="&amp;lt;&amp;lt;component&amp;gt;&amp;gt;&lt;br&gt;Pretraga" style="rounded=0;whiteSpace=wrap;html=1;" vertex="1" parent="1">
          <mxGeometry x="1350" y="570" width="100" height="50" as="geometry" />
        </mxCell>
        <mxCell id="CAX5XdgEWYL_8YnyTvap-59" value="&amp;lt;&amp;lt;component&amp;gt;&amp;gt;&lt;br&gt;Editiranje profila" style="rounded=0;whiteSpace=wrap;html=1;" vertex="1" parent="1">
          <mxGeometry x="1170" y="570" width="110" height="50" as="geometry" />
        </mxCell>
        <mxCell id="CAX5XdgEWYL_8YnyTvap-60" value="Glavna stranica" style="text;html=1;align=center;verticalAlign=middle;resizable=0;points=[];autosize=1;strokeColor=none;fillColor=none;" vertex="1" parent="1">
          <mxGeometry x="1310" y="370" width="110" height="30" as="geometry" />
        </mxCell>
        <mxCell id="CAX5XdgEWYL_8YnyTvap-61" value="&amp;lt;&amp;lt;component&amp;gt;&amp;gt;&lt;br&gt;Dodavanje u My List" style="rounded=0;whiteSpace=wrap;html=1;" vertex="1" parent="1">
          <mxGeometry x="1190" y="390" width="120" height="60" as="geometry" />
        </mxCell>
        <mxCell id="CAX5XdgEWYL_8YnyTvap-62" value="" style="endArrow=classic;html=1;rounded=0;exitX=1;exitY=1;exitDx=0;exitDy=0;" edge="1" parent="1" source="CAX5XdgEWYL_8YnyTvap-61" target="CAX5XdgEWYL_8YnyTvap-54">
          <mxGeometry width="50" height="50" relative="1" as="geometry">
            <mxPoint x="1010" y="430" as="sourcePoint" />
            <mxPoint x="1060" y="380" as="targetPoint" />
          </mxGeometry>
        </mxCell>
        <mxCell id="CAX5XdgEWYL_8YnyTvap-63" value="" style="endArrow=classic;html=1;rounded=0;exitX=1;exitY=0;exitDx=0;exitDy=0;entryX=0;entryY=1;entryDx=0;entryDy=0;" edge="1" parent="1" source="CAX5XdgEWYL_8YnyTvap-59" target="CAX5XdgEWYL_8YnyTvap-54">
          <mxGeometry width="50" height="50" relative="1" as="geometry">
            <mxPoint x="1010" y="430" as="sourcePoint" />
            <mxPoint x="1060" y="380" as="targetPoint" />
          </mxGeometry>
        </mxCell>
        <mxCell id="CAX5XdgEWYL_8YnyTvap-64" value="" style="endArrow=classic;html=1;rounded=0;exitX=1;exitY=0;exitDx=0;exitDy=0;entryX=0.5;entryY=1;entryDx=0;entryDy=0;" edge="1" parent="1" source="CAX5XdgEWYL_8YnyTvap-58" target="CAX5XdgEWYL_8YnyTvap-54">
          <mxGeometry width="50" height="50" relative="1" as="geometry">
            <mxPoint x="1010" y="430" as="sourcePoint" />
            <mxPoint x="1060" y="380" as="targetPoint" />
          </mxGeometry>
        </mxCell>
        <mxCell id="CAX5XdgEWYL_8YnyTvap-65" value="" style="endArrow=classic;html=1;rounded=0;exitX=0;exitY=0;exitDx=0;exitDy=0;entryX=1;entryY=1;entryDx=0;entryDy=0;" edge="1" parent="1" source="CAX5XdgEWYL_8YnyTvap-57" target="CAX5XdgEWYL_8YnyTvap-54">
          <mxGeometry width="50" height="50" relative="1" as="geometry">
            <mxPoint x="1010" y="430" as="sourcePoint" />
            <mxPoint x="1060" y="380" as="targetPoint" />
          </mxGeometry>
        </mxCell>
        <mxCell id="CAX5XdgEWYL_8YnyTvap-66" value="" style="endArrow=classic;html=1;rounded=0;exitX=0;exitY=1;exitDx=0;exitDy=0;entryX=0.945;entryY=0.055;entryDx=0;entryDy=0;entryPerimeter=0;" edge="1" parent="1" source="CAX5XdgEWYL_8YnyTvap-55" target="CAX5XdgEWYL_8YnyTvap-54">
          <mxGeometry width="50" height="50" relative="1" as="geometry">
            <mxPoint x="1010" y="430" as="sourcePoint" />
            <mxPoint x="1060" y="380" as="targetPoint" />
          </mxGeometry>
        </mxCell>
        <mxCell id="CAX5XdgEWYL_8YnyTvap-67" value="" style="endArrow=classic;html=1;rounded=0;exitX=0;exitY=0.5;exitDx=0;exitDy=0;entryX=1;entryY=0.5;entryDx=0;entryDy=0;" edge="1" parent="1" source="CAX5XdgEWYL_8YnyTvap-56" target="CAX5XdgEWYL_8YnyTvap-54">
          <mxGeometry width="50" height="50" relative="1" as="geometry">
            <mxPoint x="1010" y="430" as="sourcePoint" />
            <mxPoint x="1060" y="380" as="targetPoint" />
          </mxGeometry>
        </mxCell>
        <mxCell id="CAX5XdgEWYL_8YnyTvap-68" value="" style="shape=providedRequiredInterface;html=1;verticalLabelPosition=bottom;sketch=0;direction=north;fillColor=#1ba1e2;fontColor=#ffffff;strokeColor=#006EAF;" vertex="1" parent="1">
          <mxGeometry x="170" y="280" width="40" height="40" as="geometry" />
        </mxCell>
      </root>
    </mxGraphModel>
  </diagram>
</mxfile>
